<?xml version="1.0" standalone="no"?>
<!DOCTYPE svg PUBLIC "-//W3C//DTD SVG 20010904//EN"
 "http://www.w3.org/TR/2001/REC-SVG-20010904/DTD/svg10.dtd">
<svg version="1.0" xmlns="http://www.w3.org/2000/svg"
 width="173.000000pt" height="173.000000pt" viewBox="0 0 173.000000 173.000000"
 preserveAspectRatio="xMidYMid meet">
<metadata>
Created by potrace 1.14, written by Peter Selinger 2001-2017
</metadata>
<g transform="translate(0.000000,173.000000) scale(0.100000,-0.100000)"
fill="#000000" stroke="none">
<path d="M1267 1444 c-1 -1 -27 -4 -57 -7 -130 -15 -235 -61 -333 -147 -129
-113 -201 -294 -200 -500 0 -57 11 -161 17 -168 3 -2 13 15 23 39 19 49 102
211 112 219 3 3 20 25 36 50 17 24 37 52 45 61 8 9 31 33 50 54 19 22 34 42
32 47 -1 4 1 7 6 6 4 -2 28 13 52 33 60 49 132 90 210 121 147 58 163 41 28
-27 -116 -59 -122 -65 -72 -66 21 -1 42 -1 47 0 4 0 7 -2 7 -7 0 -4 -29 -16
-65 -26 -82 -23 -169 -75 -214 -127 -41 -47 -86 -119 -74 -119 5 0 33 9 63 19
64 22 157 35 164 22 3 -5 -6 -12 -22 -16 -15 -3 -65 -25 -112 -48 -99 -48
-198 -140 -247 -227 -34 -60 -79 -187 -70 -196 8 -8 153 22 277 58 259 73 354
176 439 477 53 185 95 265 191 362 l76 77 -71 11 c-115 19 -327 35 -338 25z"/>
<path d="M83 1064 c21 -72 27 -117 32 -254 8 -232 16 -267 77 -335 53 -61 153
-97 244 -88 52 5 153 34 160 45 9 15 -93 107 -141 128 -24 10 -71 24 -104 31
-34 6 -61 15 -61 19 0 4 30 8 68 10 37 1 73 3 80 3 17 1 16 6 -14 45 -15 19
-54 52 -87 73 -62 41 -62 41 10 42 20 0 17 6 -28 55 -27 30 -48 57 -45 59 9
10 113 -66 156 -114 25 -27 80 -107 123 -176 44 -70 80 -127 82 -127 1 0 2 51
1 113 -3 143 -23 210 -83 278 -54 59 -137 101 -243 123 -91 19 -152 39 -198
68 -32 20 -34 20 -29 2z"/>
<path d="M0 285 l0 -25 865 0 865 0 0 25 0 25 -865 0 -865 0 0 -25z"/>
</g>
</svg>
